{
  "asset": {
    "version": "2.0",
    "generator": "PreviewDock sample generator"
  },
  "scene": 0,
  "scenes": [
    {
      "name": "PreviewDock Product Scene",
      "nodes": [0]
    }
  ],
  "nodes": [
    {
      "name": "Product Triangle",
      "mesh": 0
    }
  ],
  "meshes": [
    {
      "name": "PreviewDock Mesh",
      "primitives": [
        {
          "attributes": {
            "POSITION": 0
          },
          "indices": 1,
          "material": 0
        }
      ]
    }
  ],
  "materials": [
    {
      "name": "PreviewDock Blue",
      "pbrMetallicRoughness": {
        "baseColorFactor": [0.192, 0.369, 0.906, 1],
        "metallicFactor": 0.1,
        "roughnessFactor": 0.55
      }
    }
  ],
  "buffers": [
    {
      "byteLength": 42,
      "uri": "data:application/octet-stream;base64,"
    }
  ],
  "bufferViews": [
    {
      "buffer": 0,
      "byteOffset": 0,
      "byteLength": 36,
      "target": 34962
    },
    {
      "buffer": 0,
      "byteOffset": 36,
      "byteLength": 6,
      "target": 34963
    }
  ],
  "accessors": [
    {
      "bufferView": 0,
      "componentType": 5126,
      "count": 3,
      "type": "VEC3",
      "min": [0, 0, 0],
      "max": [1, 1, 0]
    },
    {
      "bufferView": 1,
      "componentType": 5123,
      "count": 3,
      "type": "SCALAR"
    }
  ]
}
